<svg width="749" height="517" viewBox="0 0 749 517" fill="none" xmlns="http://www.w3.org/2000/svg">
<g clip-path="url(#clip0)">
<path d="M180.525 309.949C193.764 288.324 155.315 279.222 176.546 290.511C197.777 301.799 112.577 293.748 135.942 290.511C155.643 287.779 171.798 270.6 180.525 250.78C189.253 230.961 191.814 208.614 194.27 186.726C197.356 159.228 200.441 131.712 203.523 104.179C204.652 94.1116 205.985 83.4862 211.646 75.5205C219.126 65.0133 232.838 61.7823 244.566 64.941C256.295 68.0998 266.296 76.5712 274.853 86.0211C302.263 116.282 317.794 157.188 341.757 190.863C346.636 197.719 352.146 204.496 359.435 207.806C369.942 212.567 382.006 209.198 392.27 203.899C425.761 186.634 448.26 151.402 470.371 118.528C481.127 102.55 494.242 85.4629 512.137 83.7227C530.964 81.8511 547.309 97.8942 558.374 114.883C593.889 169.547 601.5 244.174 644.401 291.85C649.727 297.761 655.605 303.225 662.375 306.895C664.608 308.102 666.936 309.123 669.336 309.949C706.768 322.906 719.245 374.916 691.559 405.755C690.961 406.412 690.35 407.068 689.733 407.725C685.622 412.066 680.966 416.17 675.411 417.464C670.242 418.659 664.903 417.28 659.781 415.789C627.038 406.234 594.69 391.629 560.837 392.339C527.897 392.995 496.652 408.211 464.08 413.688C442.179 417.372 419.897 416.637 397.753 415.842C324.002 413.189 250.266 410.102 176.546 406.582C139.955 404.901 213.13 351.872 176.546 350C148.36 348.536 168.27 342.659 165 309.949C162.137 281.304 163.55 337.688 180.525 309.949Z" fill="#FF4F08"/>
<path d="M518.723 517C616.644 517 696.024 505.907 696.024 492.223C696.024 478.539 616.644 467.445 518.723 467.445C420.803 467.445 341.422 478.539 341.422 492.223C341.422 505.907 420.803 517 518.723 517Z" fill="#30374E"/>
<path d="M97.6768 385.332C97.6768 385.332 106.345 383.362 112.026 389.187C112.026 389.187 108.374 392.47 99.7848 388.832L97.6768 385.332Z" fill="#FF4F08"/>
<path d="M96.7181 385.246C96.7181 385.246 91.5827 392.523 94.8399 399.989C94.8399 399.989 99.2792 397.855 99.1544 388.53L96.7181 385.246Z" fill="#FF4F08"/>
<path d="M90.9391 374.279C90.9391 374.279 94.019 367.614 108.67 375.672C108.67 375.672 107.094 380.124 100.868 380.19C94.6429 380.255 92.7778 377.556 90.9391 374.279Z" fill="#FF4F08"/>
<path d="M90.0066 373.872C90.0066 373.872 82.6713 373.531 83.085 390.237C83.085 390.237 87.7673 390.894 90.6896 385.391C93.6119 379.888 92.0621 377.044 90.0066 373.872Z" fill="#FF4F08"/>
<path d="M84.8975 360.87C84.8975 360.87 88.181 349.259 103.594 356.352C103.594 356.352 100.901 366.984 86.6509 364.652L84.8975 360.87Z" fill="#FF4F08"/>
<path d="M79.1777 344.229C79.1777 344.229 86.1255 332.251 100.514 341.97C100.514 341.97 96.4488 353.048 80.6224 348.241L79.1777 344.229Z" fill="#FF4F08"/>
<path d="M76.459 328.205C76.459 328.205 84.753 317.074 99.023 326.688C99.023 326.688 91.1033 336.5 76.6363 330.891L76.459 328.205Z" fill="#FF4F08"/>
<path d="M74.0029 312.628C74.0029 312.628 82.3824 301.031 96.0613 310.56C96.0613 310.56 86.421 320.955 74.1737 315.203L74.0029 312.628Z" fill="#FF4F08"/>
<path d="M73.8848 298.667C73.8848 298.667 82.5203 283.872 95.3259 292.645C95.3259 292.645 85.8563 305.497 74.0686 301.353L73.8848 298.667Z" fill="#FF4F08"/>
<path d="M75.0471 282.263C75.0471 282.263 84.2408 267.553 96.7771 277.548C96.7771 277.548 85.5476 290.517 75.1915 284.87L75.0471 282.263Z" fill="#FF4F08"/>
<path d="M77.4309 267.513C77.4309 267.513 88.5947 253.519 99.463 258.076C99.463 258.076 87.8526 272.918 77.1354 271.053L77.4309 267.513Z" fill="#FF4F08"/>
<path d="M80.7144 253.46C80.7144 253.46 93.5462 236.386 101.972 241.232C101.972 241.232 92.5743 254.425 79.9198 256.566L80.7144 253.46Z" fill="#FF4F08"/>
<path d="M85.7184 237.082C85.7184 237.082 96.9939 223.081 106.076 225.76C106.076 225.76 96.5867 240.135 84.3394 241.311L85.7184 237.082Z" fill="#FF4F08"/>
<path d="M90.2167 221.774C90.2167 221.774 102.812 208.246 108.808 210.072C108.808 210.072 100.041 224.755 89.8162 224.618L90.2167 221.774Z" fill="#FF4F08"/>
<path d="M94.6625 207.616C94.6625 207.616 105.229 191.756 111.618 192.512C111.618 192.512 105.505 206.427 94.7676 209.146L94.6625 207.616Z" fill="#FF4F08"/>
<path d="M99.2529 188.63C99.2529 188.63 108.703 176.376 114.232 176.035C114.232 176.035 107.199 192.019 99.0822 192.452L99.2529 188.63Z" fill="#FF4F08"/>
<path d="M101.88 176.015L110.141 151.264C110.141 151.264 112.111 173.001 100.947 180.566L101.88 176.015Z" fill="#FF4F08"/>
<path d="M104.106 149.182C104.106 149.182 104.395 128.963 103.232 127.4C103.232 127.4 111.421 143.647 104.638 158.074L104.106 149.182Z" fill="#FF4F08"/>
<path d="M84.4772 360.627C84.4772 360.627 73.7993 354.966 68.2109 370.956C68.2109 370.956 77.733 376.394 85.9416 364.514L84.4772 360.627Z" fill="#FF4F08"/>
<path d="M78.8034 343.605C78.8034 343.605 65.8534 338.713 60.8428 355.347C60.8428 355.347 71.0018 361.356 80.2218 347.624L78.8034 343.605Z" fill="#FF4F08"/>
<path d="M75.9402 329.21C75.9402 329.21 66.2277 319.287 53.3762 330.74C53.3762 330.74 62.5305 339.402 76.1175 331.916L75.9402 329.21Z" fill="#FF4F08"/>
<path d="M73.6943 312.655C73.6943 312.655 63.8439 302.272 51.5571 313.548C51.5571 313.548 62.4977 322.564 73.8848 315.222L73.6943 312.655Z" fill="#FF4F08"/>
<path d="M73.911 299.061C73.911 299.061 66.451 283.648 53.0084 291.397C53.0084 291.397 61.4535 304.945 73.5236 301.734L73.911 299.061Z" fill="#FF4F08"/>
<path d="M75.8154 282.144C75.8154 282.144 68.3751 266.449 54.7618 274.875C54.7618 274.875 64.3889 289.066 75.3426 284.679L75.8154 282.144Z" fill="#FF4F08"/>
<path d="M78.7902 267.5C78.7902 267.5 75.0865 249.999 63.3251 249.198C63.3251 249.198 67.0551 267.671 77.4506 270.79L78.7902 267.5Z" fill="#FF4F08"/>
<path d="M81.0164 253.473C81.0164 253.473 78.6064 232.255 68.8939 232.156C68.8939 232.156 70.3058 248.292 80.1299 256.553L81.0164 253.473Z" fill="#FF4F08"/>
<path d="M86.6837 236.405C86.6837 236.405 82.6056 218.898 73.2411 217.361C73.2411 217.361 75.5396 234.435 86.0664 240.818L86.6837 236.405Z" fill="#FF4F08"/>
<path d="M91.32 221.827C91.32 221.827 90.0066 203.393 84.162 201.062C84.162 201.062 81.7914 217.991 89.8424 224.296L91.32 221.827Z" fill="#FF4F08"/>
<path d="M95.0829 207.386C95.0829 207.386 93.0143 188.44 86.999 186.161C86.999 186.161 86.0139 201.324 94.2883 208.686L95.0829 207.386Z" fill="#FF4F08"/>
<path d="M100.172 190.088C100.172 190.088 99.0952 174.649 94.6888 171.3C94.6888 171.3 91.6812 188.499 98.2021 193.339L100.172 190.088Z" fill="#FF4F08"/>
<path d="M101.315 175.286L95.536 149.846C95.536 149.846 91.4448 171.28 101.821 179.909L101.315 175.286Z" fill="#FF4F08"/>
<path d="M100.415 149.675C100.415 149.675 88.8377 133.074 88.9296 131.143C88.9296 131.143 91.2543 149.189 104.96 157.339L100.415 149.675Z" fill="#FF4F08"/>
<path d="M101.315 144.494C101.315 144.494 89.849 120.596 85.2719 118.882C85.2719 118.882 99.7782 125.075 102.09 143.706L101.315 144.494Z" fill="#FF4F08"/>
<path d="M99.0427 192.577L98.386 192.413C104.854 164.832 105.767 147.442 100.947 143.449L101.394 142.911C106.476 147.14 105.675 164.319 99.0427 192.577Z" fill="#444053"/>
<path d="M80.4714 257.367L79.4535 257.085C80.1693 254.55 80.9442 251.969 81.7716 249.428C88.9953 227.284 94.9975 206.742 98.6815 191.021L99.5155 190.528C95.8249 206.289 89.9869 227.586 82.7764 249.749C81.9555 252.284 81.1806 254.845 80.4714 257.367Z" fill="#444053"/>
<path d="M111.369 404.731C111.224 404.593 96.7771 390.369 85.679 365.171C79.1763 350.422 75.0515 334.736 73.4579 318.696C71.4878 298.647 74.1803 275.926 80.0248 255.062L80.8654 255.929C67.7315 302.758 76.8005 341.523 86.9267 364.547C97.9132 389.502 112.196 403.588 112.341 403.726L111.369 404.731Z" fill="#444053"/>
<path d="M127.274 329.729C127.274 329.729 132.528 328.527 135.956 332.06C135.956 332.06 133.742 334.03 128.555 331.843L127.274 329.729Z" fill="#FF4F08"/>
<path d="M126.703 329.683C126.703 329.683 123.603 334.083 125.573 338.594C125.573 338.594 128.253 337.281 128.2 331.666L126.703 329.683Z" fill="#FF4F08"/>
<path d="M123.209 323.044C123.209 323.044 125.068 319.018 133.913 323.891C133.913 323.891 132.961 326.577 129.198 326.616C125.435 326.656 124.332 325.027 123.209 323.044Z" fill="#FF4F08"/>
<path d="M122.644 322.801C122.644 322.801 118.205 322.597 118.455 332.691C118.455 332.691 121.285 333.085 123.051 329.762C124.818 326.439 123.885 324.718 122.644 322.801Z" fill="#FF4F08"/>
<path d="M119.538 314.94C119.538 314.94 121.554 307.92 130.853 312.195C130.853 312.195 129.231 318.624 120.615 317.212L119.538 314.94Z" fill="#FF4F08"/>
<path d="M116.097 304.879C116.097 304.879 120.293 297.656 128.995 303.513C128.995 303.513 126.532 310.212 116.97 307.303L116.097 304.879Z" fill="#FF4F08"/>
<path d="M114.449 295.193C114.449 295.193 119.466 288.462 128.088 294.274C128.088 294.274 123.308 300.184 114.56 296.815L114.449 295.193Z" fill="#FF4F08"/>
<path d="M112.965 285.776C112.965 285.776 118.034 278.763 126.302 284.528C126.302 284.528 120.477 290.813 113.07 287.332L112.965 285.776Z" fill="#FF4F08"/>
<path d="M112.899 277.331C112.899 277.331 118.153 268.393 125.856 273.693C125.856 273.693 120.129 281.462 113.004 278.946L112.899 277.331Z" fill="#FF4F08"/>
<path d="M113.582 267.421C113.582 267.421 119.157 258.523 126.716 264.545C126.716 264.545 119.926 272.386 113.661 268.971L113.582 267.421Z" fill="#FF4F08"/>
<path d="M115.04 258.503C115.04 258.503 121.784 250.045 128.358 252.803C128.358 252.803 121.337 261.774 114.876 260.644L115.04 258.503Z" fill="#FF4F08"/>
<path d="M117.023 250.006C117.023 250.006 124.779 239.689 129.875 242.611C129.875 242.611 124.194 250.59 116.544 251.884L117.023 250.006Z" fill="#FF4F08"/>
<path d="M120.05 240.116C120.05 240.116 126.867 231.651 132.37 233.273C132.37 233.273 126.637 241.961 119.236 242.67L120.05 240.116Z" fill="#FF4F08"/>
<path d="M122.769 230.85C122.769 230.85 130.38 222.674 134.005 223.777C134.005 223.777 128.712 232.649 122.526 232.57L122.769 230.85Z" fill="#FF4F08"/>
<path d="M125.455 222.293C125.455 222.293 131.845 212.705 135.706 213.152C135.706 213.152 132.015 221.564 125.521 223.212L125.455 222.293Z" fill="#FF4F08"/>
<path d="M128.239 210.814C128.239 210.814 133.953 203.406 137.295 203.196C137.295 203.196 133.04 212.863 128.134 213.106L128.239 210.814Z" fill="#FF4F08"/>
<path d="M129.822 203.183L134.806 188.236C134.806 188.236 135.988 201.37 129.231 205.967L129.822 203.183Z" fill="#FF4F08"/>
<path d="M131.168 186.962C131.168 186.962 131.339 174.741 130.636 173.796C130.636 173.796 135.588 183.613 131.483 192.341L131.168 186.962Z" fill="#FF4F08"/>
<path d="M119.295 314.796C119.295 314.796 112.847 311.368 109.445 321.034C109.445 321.034 115.204 324.318 120.169 317.147L119.295 314.796Z" fill="#FF4F08"/>
<path d="M115.874 304.472C115.874 304.472 108.039 301.517 105.012 311.571C105.012 311.571 111.152 315.203 116.728 306.909L115.874 304.472Z" fill="#FF4F08"/>
<path d="M114.134 295.797C114.134 295.797 108.269 289.802 100.494 296.717C100.494 296.717 106.03 301.97 114.245 297.426L114.134 295.797Z" fill="#FF4F08"/>
<path d="M112.781 285.789C112.781 285.789 106.825 279.518 99.3973 286.334C99.3973 286.334 106.01 291.778 112.886 287.346L112.781 285.789Z" fill="#FF4F08"/>
<path d="M112.912 277.548C112.912 277.548 108.401 268.229 100.271 272.911C100.271 272.911 105.38 281.1 112.676 279.163L112.912 277.548Z" fill="#FF4F08"/>
<path d="M114.061 267.336C114.061 267.336 109.563 257.847 101.315 262.943C101.315 262.943 107.133 271.526 113.759 268.853L114.061 267.336Z" fill="#FF4F08"/>
<path d="M115.861 258.503C115.861 258.503 113.621 247.917 106.509 247.438C106.509 247.438 108.762 258.602 115.046 260.486L115.861 258.503Z" fill="#FF4F08"/>
<path d="M117.207 250.012C117.207 250.012 115.762 237.187 109.852 237.121C109.852 237.121 110.706 246.88 116.642 251.877L117.207 250.012Z" fill="#FF4F08"/>
<path d="M120.628 239.695C120.628 239.695 118.166 229.109 112.505 228.177C112.505 228.177 113.897 238.494 120.261 242.355L120.628 239.695Z" fill="#FF4F08"/>
<path d="M123.432 230.882C123.432 230.882 122.625 219.719 119.111 218.326C119.111 218.326 117.673 228.564 122.539 232.373L123.432 230.882Z" fill="#FF4F08"/>
<path d="M125.711 222.148C125.711 222.148 124.463 210.696 120.825 209.316C120.825 209.316 120.228 218.51 125.232 222.936L125.711 222.148Z" fill="#FF4F08"/>
<path d="M128.784 211.694C128.784 211.694 128.128 202.362 125.501 200.333C125.501 200.333 123.682 210.735 127.622 213.657L128.784 211.694Z" fill="#FF4F08"/>
<path d="M129.494 202.743L126 187.363C126 187.363 123.524 200.326 129.796 205.54L129.494 202.743Z" fill="#FF4F08"/>
<path d="M128.935 187.264C128.935 187.264 121.942 177.237 121.994 176.061C121.994 176.061 123.393 186.969 131.68 191.894L128.935 187.264Z" fill="#FF4F08"/>
<path d="M129.461 184.125C129.461 184.125 122.526 169.678 119.761 168.66C119.761 168.66 128.535 172.403 129.927 183.672L129.461 184.125Z" fill="#FF4F08"/>
<path d="M128.101 213.191L127.688 213.092C131.628 196.419 132.153 185.905 129.238 183.495L129.507 183.167C132.6 185.728 132.114 196.117 128.101 213.191Z" fill="#444053"/>
<path d="M116.879 252.37L116.261 252.192C116.695 250.662 117.167 249.106 117.667 247.596C122.02 234.205 125.659 221.787 127.885 212.285L128.39 211.983C126.158 221.505 122.631 234.389 118.271 247.793C117.772 249.309 117.305 250.84 116.879 252.37Z" fill="#444053"/>
<path d="M135.555 341.458C135.47 341.372 126.736 332.776 120.024 317.541C116.096 308.624 113.602 299.142 112.636 289.447C111.435 277.324 113.076 263.586 116.616 250.971L117.122 251.496C109.182 279.807 114.666 303.244 120.786 317.166C127.432 332.27 136.061 340.762 136.153 340.847L135.555 341.458Z" fill="#444053"/>
<path d="M155.308 374.293C153.623 374.592 151.973 375.063 150.383 375.698C114.961 389.843 115.552 482.438 115.552 482.438H105.124C105.124 482.438 101.84 442.701 87.5309 386.008C74.64 335.002 127.51 289.289 138.247 280.621C139.456 279.656 140.126 279.143 140.126 279.143C193.377 298.713 155.308 374.293 155.308 374.293Z" fill="#AFC0E0"/>
<path opacity="0.2" d="M144 280.752C142.772 280.188 141.505 279.649 140.158 279.156C140.158 279.156 139.502 279.669 138.28 280.634C127.543 289.303 74.6728 335.015 87.5637 386.021C101.873 442.714 105.124 482.438 105.124 482.438H110.988C110.988 482.438 107.737 442.701 93.3951 386.008C80.5567 335.239 132.915 289.697 144 280.752Z" fill="white"/>
<path d="M331.001 386.021C316.658 442.714 313.427 482.438 313.427 482.438H302.979C302.979 482.438 303.636 385.667 265.725 374.864C264.904 374.617 264.068 374.422 263.223 374.279C263.223 374.279 225.135 298.7 278.406 279.143C278.406 279.143 278.944 279.544 279.916 280.325C289.786 288.226 344.036 334.424 331.001 386.021Z" fill="#AFC0E0"/>
<path opacity="0.1" d="M155.308 374.293C153.623 374.592 151.973 375.063 150.383 375.698C143.979 344.356 139.922 312.58 138.247 280.634C139.456 279.669 140.126 279.156 140.126 279.156C193.377 298.713 155.308 374.293 155.308 374.293Z" fill="black"/>
<path opacity="0.1" d="M279.936 280.339C277.765 312.191 273.019 343.816 265.745 374.903C264.924 374.657 264.088 374.462 263.243 374.319C263.243 374.319 225.154 298.739 278.426 279.183C278.406 279.156 278.944 279.557 279.936 280.339Z" fill="black"/>
<path d="M260.439 388.622C256.761 403.13 252.451 418.016 247.508 433.277C247.508 433.277 224.051 457.713 167.392 433.277C167.392 433.277 161.731 417.32 155.505 390.191C141.8 330.543 125.363 216.875 160.385 100.12C170.814 65.0217 185.637 31.3816 204.501 0C204.501 0 234.42 34.352 256.38 100.101C278.34 165.85 292.315 263.008 260.439 388.622Z" fill="#E3E8F4"/>
<path d="M209.262 239.846C235.241 239.846 256.301 218.786 256.301 192.807C256.301 166.828 235.241 145.768 209.262 145.768C183.283 145.768 162.223 166.828 162.223 192.807C162.223 218.786 183.283 239.846 209.262 239.846Z" fill="#AFC0E0"/>
<path d="M242.622 192.833C242.622 199.151 240.828 205.338 237.45 210.676C234.071 216.014 229.246 220.282 223.536 222.985C217.826 225.688 211.466 226.714 205.196 225.944C198.926 225.174 193.003 222.639 188.117 218.635C185.732 216.671 183.628 214.388 181.865 211.851C181.073 210.718 180.354 209.536 179.711 208.312C177.209 203.536 175.904 198.225 175.909 192.833C175.909 192.564 175.909 192.301 175.909 192.039C176.08 184.905 178.531 178.013 182.904 172.374C187.276 166.734 193.34 162.644 200.207 160.701C202.828 159.978 205.526 159.568 208.244 159.48H209.243C213.625 159.477 217.964 160.338 222.014 162.013C226.063 163.688 229.742 166.144 232.842 169.241C235.942 172.339 238.401 176.016 240.079 180.064C241.757 184.112 242.622 188.451 242.622 192.833Z" fill="#FF4F08"/>
<path d="M256.374 100.101C203.004 125.653 160.352 100.101 160.352 100.101C170.793 65.0072 185.627 31.3738 204.501 0C204.501 0 234.42 34.352 256.374 100.101Z" fill="#AFC0E0"/>
<path d="M260.439 388.622C257.943 398.446 255.163 408.439 252.099 418.6C250.645 423.447 249.113 428.332 247.502 433.258C247.502 433.258 224.045 457.693 167.385 433.258C167.385 433.258 165.546 428.076 162.788 418.6C160.726 411.442 158.158 401.848 155.479 390.172C155.479 390.172 176.572 399.175 206.511 399.175C225.006 399.238 243.332 395.652 260.439 388.622Z" fill="#AFC0E0"/>
<path d="M252.099 418.6C250.645 423.447 249.113 428.332 247.502 433.258C247.502 433.258 224.045 457.693 167.385 433.258C167.385 433.258 165.546 428.076 162.788 418.6C162.782 418.6 220.531 435.215 252.099 418.6Z" fill="#E3E8F4"/>
<path opacity="0.2" d="M200.226 160.655L200.154 160.708L175.922 191.993C175.922 192.255 175.922 192.518 175.922 192.787C175.918 198.179 177.222 203.49 179.724 208.266L208.277 159.434L200.226 160.655Z" fill="white"/>
<path opacity="0.2" d="M207.962 188.893L188.117 218.609C185.732 216.645 183.628 214.362 181.865 211.825L205.506 186.45L207.962 188.893Z" fill="white"/>
<path opacity="0.2" d="M180.066 433.264C180.066 433.264 174.405 417.3 168.18 390.178C154.474 330.524 138.037 216.855 173.059 100.101C182.473 68.5096 195.438 38.0874 211.705 9.41707C207.26 3.18499 204.482 0.00656128 204.482 0.00656128C185.614 31.3791 170.787 65.0102 160.352 100.101C125.33 216.855 141.767 330.524 155.473 390.178C161.698 417.3 167.359 433.264 167.359 433.264C189.745 442.911 206.944 444.934 219.566 443.857C208.783 443.036 195.689 439.995 180.066 433.264Z" fill="white"/>
<path d="M615.31 478.688C615.31 478.688 646.004 440.495 643.968 402.242C643.013 386.205 647.285 370.292 656.143 356.89C660.407 350.55 665.243 344.615 670.591 339.159" stroke="#535461" stroke-width="2" stroke-miterlimit="10"/>
<path d="M669.428 315.071C667.235 320.397 670.518 339.816 670.518 339.816C670.518 339.816 686.522 328.337 688.715 323.011C689.768 320.453 689.762 317.582 688.698 315.029C687.634 312.476 685.599 310.45 683.042 309.398C680.484 308.345 677.613 308.351 675.06 309.415C672.507 310.479 670.481 312.514 669.428 315.071Z" fill="#FF4F08"/>
<path d="M641.335 338.017C642.392 343.677 655.703 358.19 655.703 358.19C655.703 358.19 662.927 339.862 661.843 334.195C661.337 331.475 659.77 329.068 657.489 327.503C655.207 325.939 652.398 325.344 649.678 325.851C646.958 326.358 644.552 327.924 642.987 330.206C641.422 332.487 640.828 335.297 641.335 338.017Z" fill="#FF4F08"/>
<path d="M621.279 388.727C625.049 393.081 643.87 398.893 643.87 398.893C643.87 398.893 640.823 379.435 637.053 375.074C635.224 373.052 632.675 371.827 629.953 371.662C627.232 371.497 624.554 372.404 622.493 374.189C620.432 375.974 619.152 378.496 618.928 381.213C618.703 383.931 619.552 386.628 621.292 388.727H621.279Z" fill="#FF4F08"/>
<path d="M614.745 430.513C617.72 435.444 635.287 444.349 635.287 444.349C635.287 444.349 635.576 424.648 632.601 419.723C631.892 418.551 630.96 417.529 629.857 416.717C628.754 415.905 627.501 415.318 626.171 414.99C624.841 414.662 623.46 414.599 622.105 414.805C620.751 415.011 619.451 415.482 618.278 416.19C617.106 416.898 616.085 417.831 615.272 418.934C614.46 420.037 613.874 421.29 613.546 422.62C613.217 423.95 613.155 425.331 613.36 426.685C613.566 428.04 614.037 429.34 614.745 430.513Z" fill="#FF4F08"/>
<path d="M675.529 367.561C670.184 369.696 650.798 366.215 650.798 366.215C650.798 366.215 662.435 350.33 667.787 348.189C670.356 347.162 673.227 347.198 675.77 348.288C678.312 349.379 680.317 351.435 681.344 354.004C682.371 356.573 682.335 359.444 681.244 361.987C680.154 364.53 678.098 366.535 675.529 367.561Z" fill="#FF4F08"/>
<path d="M667.268 416.334C661.528 416.774 644.073 407.653 644.073 407.653C644.073 407.653 659.926 395.97 665.672 395.53C668.397 395.378 671.074 396.301 673.127 398.099C675.181 399.898 676.448 402.429 676.657 405.151C676.865 407.873 675.999 410.568 674.244 412.659C672.489 414.749 669.984 416.069 667.268 416.334Z" fill="#FF4F08"/>
<path d="M652.735 462.632C647.147 464.037 628.405 457.995 628.405 457.995C628.405 457.995 642.057 443.804 647.646 442.405C648.974 442.071 650.355 442.002 651.71 442.201C653.064 442.401 654.367 442.865 655.542 443.568C656.717 444.271 657.743 445.198 658.56 446.297C659.377 447.397 659.969 448.646 660.303 449.974C660.638 451.302 660.707 452.683 660.507 454.038C660.308 455.393 659.844 456.695 659.141 457.87C658.438 459.046 657.511 460.071 656.411 460.888C655.312 461.705 654.063 462.298 652.735 462.632Z" fill="#FF4F08"/>
<path opacity="0.25" d="M669.428 315.071C667.235 320.397 670.518 339.816 670.518 339.816C670.518 339.816 686.522 328.337 688.715 323.011C689.768 320.453 689.762 317.582 688.698 315.029C687.634 312.476 685.599 310.45 683.042 309.398C680.484 308.345 677.613 308.351 675.06 309.415C672.507 310.479 670.481 312.514 669.428 315.071Z" fill="black"/>
<path opacity="0.25" d="M641.335 338.017C642.392 343.677 655.703 358.19 655.703 358.19C655.703 358.19 662.927 339.862 661.843 334.195C661.337 331.475 659.77 329.068 657.489 327.503C655.207 325.939 652.398 325.344 649.678 325.851C646.958 326.358 644.552 327.924 642.987 330.206C641.422 332.487 640.828 335.297 641.335 338.017Z" fill="black"/>
<path opacity="0.25" d="M621.279 388.727C625.049 393.081 643.87 398.893 643.87 398.893C643.87 398.893 640.823 379.435 637.053 375.074C635.224 373.052 632.675 371.827 629.953 371.662C627.232 371.497 624.554 372.404 622.493 374.189C620.432 375.974 619.152 378.496 618.928 381.213C618.703 383.931 619.552 386.628 621.292 388.727H621.279Z" fill="black"/>
<path opacity="0.25" d="M614.745 430.513C617.72 435.444 635.287 444.349 635.287 444.349C635.287 444.349 635.576 424.648 632.601 419.723C631.892 418.551 630.96 417.529 629.857 416.717C628.754 415.905 627.501 415.318 626.171 414.99C624.841 414.662 623.46 414.599 622.105 414.805C620.751 415.011 619.451 415.482 618.278 416.19C617.106 416.898 616.085 417.831 615.272 418.934C614.46 420.037 613.874 421.29 613.546 422.62C613.217 423.95 613.155 425.331 613.36 426.685C613.566 428.04 614.037 429.34 614.745 430.513Z" fill="black"/>
<path opacity="0.25" d="M675.529 367.561C670.184 369.696 650.798 366.215 650.798 366.215C650.798 366.215 662.435 350.33 667.787 348.189C670.356 347.162 673.227 347.198 675.77 348.288C678.312 349.379 680.317 351.435 681.344 354.004C682.371 356.573 682.335 359.444 681.244 361.987C680.154 364.53 678.098 366.535 675.529 367.561Z" fill="black"/>
<path opacity="0.25" d="M667.268 416.334C661.528 416.774 644.073 407.653 644.073 407.653C644.073 407.653 659.926 395.97 665.672 395.53C668.397 395.378 671.074 396.301 673.127 398.099C675.181 399.898 676.448 402.429 676.657 405.151C676.865 407.873 675.999 410.568 674.244 412.659C672.489 414.749 669.984 416.069 667.268 416.334Z" fill="black"/>
<path opacity="0.25" d="M652.735 462.632C647.147 464.037 628.405 457.995 628.405 457.995C628.405 457.995 642.057 443.804 647.646 442.405C648.974 442.071 650.355 442.002 651.71 442.201C653.064 442.401 654.367 442.865 655.542 443.568C656.717 444.271 657.743 445.198 658.56 446.297C659.377 447.397 659.969 448.646 660.303 449.974C660.638 451.302 660.707 452.683 660.507 454.038C660.308 455.393 659.844 456.695 659.141 457.87C658.438 459.046 657.511 460.071 656.411 460.888C655.312 461.705 654.063 462.298 652.735 462.632Z" fill="black"/>
<path d="M615.586 477.092C615.586 477.092 659.125 454.607 672.764 418.817C678.387 403.766 688.743 390.946 702.276 382.285C708.731 378.219 715.546 374.755 722.634 371.935" stroke="#535461" stroke-width="2" stroke-miterlimit="10"/>
<path d="M731.361 349.43C727.198 353.416 722.332 372.5 722.332 372.5C722.332 372.5 741.612 368.487 745.775 364.508C747.778 362.596 748.94 359.967 749.005 357.2C749.069 354.432 748.032 351.751 746.12 349.748C744.209 347.746 741.58 346.584 738.812 346.519C736.044 346.455 733.364 347.492 731.361 349.404V349.43Z" fill="#FF4F08"/>
<path d="M696.386 359.024C695.072 364.633 701.344 383.322 701.344 383.322C701.344 383.322 715.325 369.485 716.678 363.844C717.306 361.157 716.844 358.331 715.392 355.984C713.941 353.637 711.618 351.961 708.933 351.323C706.249 350.686 703.42 351.138 701.068 352.581C698.717 354.025 697.033 356.342 696.386 359.024Z" fill="#FF4F08"/>
<path d="M657.496 397.257C659.177 402.767 674.032 415.704 674.032 415.704C674.032 415.704 679.134 396.66 677.453 391.176C677.054 389.866 676.4 388.647 675.53 387.589C674.66 386.531 673.59 385.655 672.381 385.011C671.172 384.367 669.848 383.967 668.484 383.834C667.121 383.702 665.745 383.839 664.434 384.238C663.124 384.638 661.905 385.291 660.847 386.161C659.789 387.032 658.913 388.102 658.269 389.311C657.625 390.52 657.225 391.844 657.092 393.207C656.96 394.571 657.097 395.947 657.496 397.257Z" fill="#FF4F08"/>
<path d="M634.591 432.811C635.313 438.531 647.764 453.786 647.764 453.786C647.764 453.786 656.012 435.904 655.283 430.184C654.935 427.44 653.511 424.947 651.324 423.253C649.137 421.559 646.367 420.803 643.623 421.151C640.879 421.5 638.386 422.924 636.692 425.11C634.998 427.297 634.242 430.067 634.591 432.811Z" fill="#FF4F08"/>
<path d="M715.673 399.891C709.914 399.681 693.608 388.641 693.608 388.641C693.608 388.641 710.682 378.837 716.441 379.047C717.81 379.098 719.155 379.417 720.4 379.987C721.645 380.558 722.766 381.368 723.698 382.371C724.63 383.375 725.355 384.552 725.832 385.836C726.31 387.119 726.529 388.484 726.479 389.853C726.428 391.222 726.109 392.567 725.538 393.812C724.968 395.057 724.158 396.178 723.155 397.11C722.151 398.042 720.974 398.767 719.69 399.244C718.407 399.722 717.041 399.941 715.673 399.891Z" fill="#FF4F08"/>
<path d="M688.354 441.131C682.923 439.207 670.663 423.795 670.663 423.795C670.663 423.795 689.897 419.546 695.322 421.47C696.613 421.927 697.801 422.635 698.819 423.551C699.836 424.468 700.663 425.576 701.253 426.813C701.842 428.049 702.182 429.389 702.254 430.757C702.325 432.125 702.126 433.494 701.669 434.785C701.211 436.076 700.504 437.264 699.587 438.281C698.671 439.299 697.562 440.126 696.326 440.716C695.09 441.305 693.749 441.645 692.381 441.716C691.014 441.788 689.645 441.589 688.354 441.131Z" fill="#FF4F08"/>
<path d="M656.301 477.572C650.627 476.593 635.943 463.472 635.943 463.472C635.943 463.472 654.18 456.039 659.854 457.017C662.579 457.487 665.007 459.021 666.601 461.281C668.196 463.541 668.828 466.342 668.358 469.067C667.887 471.793 666.354 474.22 664.094 475.815C661.834 477.41 659.033 478.042 656.307 477.572H656.301Z" fill="#FF4F08"/>
<path d="M677.492 455.986L643.745 407.042C643.745 407.042 643.088 394.926 640.908 392.096C638.728 389.265 640.435 382.968 640.435 382.968C640.435 382.968 642.799 379.507 640.75 379.192C638.701 378.876 640.435 371.16 640.435 371.16L640.278 358.886C640.278 358.886 642.169 347.066 640.593 344.255C640.131 343.49 639.901 342.607 639.929 341.713C639.957 340.82 640.242 339.954 640.75 339.218C640.75 339.218 642.642 332.448 640.75 330.721C638.859 328.993 639.332 318.44 639.805 310.1C640.278 301.76 636.488 297.038 636.488 295.778C636.488 294.517 624.011 282.243 624.011 281.146C624.011 280.05 616.131 275.479 611.396 274.218C606.661 272.957 604.297 272.018 604.455 271.388C604.612 270.757 597.041 268.242 597.041 268.242C597.041 268.242 590.415 267.769 587.886 264.46C585.358 261.15 577.649 260.204 577.425 260.171C577.379 259.955 577.327 259.731 577.281 259.515C577.235 259.298 577.182 259.042 577.136 258.805C577.734 257.801 578.286 256.776 578.785 255.719C578.936 255.397 579.08 255.062 579.218 254.76C581.983 254.635 584.82 254.044 586.987 252.35C588.1 251.419 589.01 250.268 589.66 248.97C590.309 247.672 590.685 246.254 590.763 244.805C590.897 241.896 590.26 239.003 588.917 236.418C587.538 233.582 585.509 230.646 586.205 227.573C586.514 226.259 587.309 225.077 587.716 223.777C588.484 221.314 587.775 218.609 586.58 216.323C585.384 214.038 583.723 212.029 582.396 209.816C580.702 206.995 579.571 203.873 579.067 200.622C578.798 198.914 578.693 197.115 577.832 195.611C577.119 194.495 576.177 193.544 575.068 192.82C570.134 189.291 564.175 187.484 558.112 187.678C553.817 187.829 549.535 188.992 545.274 188.46C542.706 188.145 540.256 187.232 537.774 186.49C532.481 184.927 526.38 184.283 521.77 187.31C517.16 190.338 515.328 196.294 512.209 200.95C509.451 205.074 505.406 208.528 503.304 212.889C503.304 212.81 503.344 212.725 503.37 212.639C502.853 213.648 502.459 214.715 502.194 215.818C501.393 219.246 502.063 222.831 502.897 226.253C503.324 228.019 503.915 229.937 505.445 230.915C506.975 231.894 509.142 231.677 510.955 231.999C510.889 232.294 510.81 232.597 510.744 232.899C508.868 241.766 510.399 251.015 515.035 258.803C519.67 266.592 527.069 272.349 535.758 274.927C535.758 275.249 535.758 275.584 535.758 275.886C535.755 276.79 535.7 277.694 535.594 278.592C535.594 278.592 519.735 275.308 515.473 277.541C511.211 279.774 502.851 281.481 501.59 282.729C500.329 283.977 497.177 283.044 494.367 290.445C491.556 297.846 491.214 305.392 487.583 308.833C483.951 312.274 482.067 314.658 481.909 317.179C481.751 319.701 482.382 320.325 480.957 321.12C479.532 321.914 477.489 325.211 478.12 326.472C478.12 326.472 478.908 329.617 476.386 331.187C473.865 332.756 474.173 335.909 474.173 335.909C474.173 335.909 473.228 339.376 471.021 340.157C468.815 340.939 467.39 346.14 467.39 346.14L460.212 354.381L446.034 338.686C444.972 337.51 443.487 336.804 441.904 336.722C440.322 336.641 438.772 337.192 437.595 338.253L430.634 344.531C427.947 345.183 425.519 346.629 423.667 348.681C422.15 350.239 420.928 352.059 420.062 354.053L416.246 357.481C415.047 358.968 414.314 360.776 414.14 362.679C413.966 364.581 414.358 366.492 415.268 368.172L424.35 378.213L424.409 378.298C420.974 378.732 417.94 379.835 415.622 381.877C402.062 393.836 401.897 404.862 403.953 409.886C406.008 414.91 423.194 434.282 423.194 434.282C423.194 434.282 433.182 447.265 447.603 454.174L447.492 454.285C447.209 454.587 446.927 454.942 446.651 455.27L446.415 455.572L446.198 455.874L445.942 456.255C445.87 456.354 445.804 456.459 445.738 456.564C445.673 456.669 445.554 456.859 445.469 457.017L445.292 457.319C445.187 457.516 445.075 457.72 444.97 457.93L444.865 458.133C444.734 458.409 444.602 458.692 444.477 458.987C444.431 459.092 444.392 459.204 444.346 459.309C444.267 459.513 444.182 459.723 444.103 459.966C444.024 460.209 444.005 460.235 443.959 460.373C443.913 460.511 443.821 460.78 443.755 460.99C443.689 461.2 443.663 461.286 443.624 461.43C443.584 461.575 443.492 461.89 443.433 462.126C443.374 462.363 443.361 462.402 443.322 462.553C443.236 462.914 443.151 463.289 443.079 463.683C443.079 463.827 443.026 463.978 443 464.129C442.947 464.392 442.901 464.661 442.862 464.937C442.829 465.127 442.809 465.318 442.783 465.508C442.757 465.699 442.718 466.027 442.685 466.29L442.626 466.894C442.626 467.183 442.573 467.485 442.553 467.787C442.553 467.971 442.553 468.155 442.52 468.339C442.52 468.838 442.468 469.337 442.461 469.862C442.146 488.25 443.223 490.949 443.223 490.949C443.223 490.949 445.449 496.813 451.596 497.233C452.498 497.299 453.405 497.251 454.295 497.089C462.497 495.67 481.738 492.367 488.522 493.628C492.6 494.383 500.152 493.267 505.53 492.249L506.942 491.98L507.927 495.106L511.047 494.252L513.673 495.782L515.348 496.741C518.461 507.301 531.109 503.702 531.109 503.702L534.077 505.422L564.521 506.21C564.521 506.21 571.088 510.151 575.298 511.385C575.798 511.537 576.31 511.649 576.828 511.72C579.65 511.947 582.483 511.999 585.312 511.878C587.643 511.819 589.449 511.72 589.449 511.72C589.449 511.72 589.141 503.452 588.694 494.199C600.331 493.713 610.647 492.985 616.893 491.888C633.152 489.031 639.936 474.249 642.432 466.349C643.181 469.578 643.715 472.853 644.027 476.153C644.69 479.036 645.534 481.875 646.556 484.651C647.443 486.885 648.608 488.999 650.023 490.942C662.014 486.851 654.758 480.717 652.229 478.038C649.701 475.359 653.97 473.159 653.97 473.159C653.97 473.159 657.253 470.959 656.964 468.91C656.675 466.861 656.491 464.661 667.215 464.819C677.939 464.976 677.492 455.986 677.492 455.986ZM510.915 355.511C511.053 356.411 512.55 366.11 513.903 368.645C514.186 369.183 514.297 371.094 514.258 373.826C507.901 373.321 501.282 373.051 501.282 373.051C501.472 373.281 501.591 373.562 501.623 373.859L500.625 373.636L499.174 373.281L510.882 355.472L510.915 355.511ZM487.721 392.418L498.72 394.164L499.646 394.309C499.331 396.024 499.14 397.76 499.075 399.503C499.075 399.667 499.325 399.864 499.679 400.094C499.525 400.961 499.453 401.841 499.462 402.721C499.64 403.595 504.782 405.473 510.679 407.036C510.6 407.351 510.521 407.653 510.442 407.935C505.235 405.197 497.026 403.916 496.081 401.881C495.135 399.845 467.186 390.06 467.186 390.06C467.186 390.06 466.168 389.521 464.408 388.668L471.763 390.06L473.786 389.856C478.371 391.004 483.026 391.855 487.721 392.404V392.418Z" fill="url(#paint0_linear)"/>
<path d="M641.584 462.835C641.584 462.835 637.211 489.254 615.008 493.162C592.805 497.069 518.697 496.288 518.697 496.288C518.697 496.288 476.327 490.193 461.006 454.39C445.686 418.587 435.835 404.356 448.969 403.732C462.103 403.109 532.928 427.656 536.966 427.965C541.005 428.273 645.492 373.557 641.584 462.835Z" fill="#434175"/>
<path opacity="0.05" d="M641.584 462.835C641.584 462.835 637.211 489.254 615.008 493.162C592.805 497.069 518.697 496.288 518.697 496.288C518.697 496.288 476.327 490.193 461.006 454.39C445.686 418.587 435.835 404.356 448.969 403.732C462.103 403.109 532.928 427.656 536.966 427.965C541.005 428.273 645.492 373.557 641.584 462.835Z" fill="black"/>
<path d="M442.842 492.223C442.842 492.223 445.055 498.054 451.143 498.468C452.036 498.531 452.934 498.482 453.816 498.324C461.946 496.918 481.023 493.635 487.741 494.882C491.786 495.638 499.266 494.521 504.591 493.516C508.137 492.86 510.725 492.203 510.725 492.203C510.725 492.203 504.473 471.412 503.685 470.788C502.897 470.164 475.546 453.747 475.546 453.747L453.875 452.19H453.809C453.809 452.19 449.797 452.46 446.467 456.505C444.175 459.27 442.212 463.814 442.08 471.261C441.778 489.563 442.842 492.223 442.842 492.223Z" fill="#565387"/>
<path opacity="0.05" d="M442.842 492.223C442.842 492.223 445.055 498.054 451.143 498.468C449.007 495.723 447.033 492.855 445.233 489.878L445.344 474.715C444.379 463.361 449.692 456.091 453.881 452.21H453.816C453.816 452.21 442.402 452.985 442.087 471.254C441.772 489.524 442.842 492.223 442.842 492.223Z" fill="black"/>
<path opacity="0.1" d="M536.835 459.079L557.002 443.318L588.74 412.046C588.74 412.046 585.312 411.882 580.144 411.659C578.831 412.48 575.252 415.061 575.12 418.226C574.963 422.048 566.537 418.489 562.164 420.675C557.79 422.862 536.369 450.279 532.613 450.102C528.856 449.925 525.895 448.198 524.325 450.857C524.325 450.916 524.253 450.969 524.213 451.028L536.835 459.079Z" fill="black"/>
<path opacity="0.1" d="M446.474 456.518C447.19 456.866 447.912 457.175 448.654 457.516C463.981 464.083 482.894 477.874 484.306 480.343C485.16 481.867 496.126 488.526 504.591 493.516C508.137 492.86 510.725 492.203 510.725 492.203C510.725 492.203 504.473 471.412 503.685 470.788C502.897 470.164 475.546 453.747 475.546 453.747L453.875 452.19H453.809C453.809 452.19 449.803 452.473 446.474 456.518Z" fill="black"/>
<path d="M403.946 411.705C405.975 416.709 422.99 435.944 422.99 435.944C422.99 435.944 433.773 450.01 449.1 456.577C464.428 463.144 483.341 476.935 484.746 479.404C485.652 481.013 497.88 488.368 506.469 493.424L508.394 494.547L512.662 497.023L514.921 498.337C514.921 498.337 520.175 494.134 525.369 489.905C530.564 485.675 535.633 481.532 535.719 481.295C535.87 480.829 537.899 475.51 537.433 475.201C537.19 475.037 536.119 472.87 534.149 470.361C532.047 467.577 529.318 465.327 526.183 463.794C518.96 460.511 515.867 453.037 515.867 453.037C515.867 453.037 515.21 452.538 514.14 451.882C512.288 450.713 509.313 449.032 507.113 448.749C503.665 448.316 497.263 441.282 497.263 441.282C497.263 441.282 492.882 438.465 491.162 434.873C489.52 431.445 465.275 414.791 463.029 413.255L521.81 451.002L535.876 460.044L556.043 444.284L587.788 413.012C587.788 413.012 583.519 412.801 577.281 412.539C561.855 411.882 534.458 410.825 530.997 411.606C528.179 412.263 525.273 412.451 522.394 412.164C522.394 412.164 514.593 412.519 509.431 409.794C504.269 407.068 496.133 405.794 495.194 403.778C494.255 401.762 466.582 392.056 466.582 392.056C466.582 392.056 428.907 372.047 415.458 383.933C402.009 395.819 401.91 406.707 403.946 411.705Z" fill="#434175"/>
<path d="M525.422 296.953L530.268 313.055L536.52 349.325L559.504 350.888L566.156 339.855L572.822 328.842C572.822 328.842 576.959 314.185 579.934 300.007C582.561 287.464 584.281 275.288 581.418 273.969C578.883 272.793 577.215 268.57 576.164 264.026C576.027 263.468 575.902 262.897 575.784 262.325C575.018 258.478 574.509 254.584 574.26 250.669C574.26 250.669 526.105 248.173 532.829 268.025C534.029 271.417 534.642 274.988 534.642 278.585C534.635 279.483 534.58 280.379 534.477 281.271C534.135 284.369 533.154 287.363 531.595 290.062C530.036 292.762 527.934 295.108 525.422 296.953Z" fill="#EE8E9E"/>
<path d="M515.414 294.293L517.134 321.652L521.041 344.945L525.422 355.734L529.329 414.758C529.329 414.758 567.03 419.119 576.197 414.68C576.858 414.398 577.432 413.944 577.859 413.366C588.931 396.666 585.299 348.228 585.299 348.228L589.522 316.95L586.704 300.716L579.908 299.994L574.654 299.435C574.654 299.435 573.472 300.893 571.765 303.146C567.128 309.266 558.631 321.303 559.176 326.327C559.951 333.209 558.237 340.243 555.577 341.339C552.917 342.436 550.731 344.308 550.264 342.436C549.798 340.564 549.325 340.092 549.792 337.432C550.258 334.772 547.756 326.642 547.756 326.642C547.756 326.642 543.54 317.107 543.816 313.042C544.091 308.977 543.349 304.282 542.095 303.192C540.841 302.102 539.127 300.998 540.532 295.968C541.937 290.938 534.366 281.225 534.366 281.225L515.414 294.293Z" fill="#E3E8F4"/>
<path opacity="0.1" d="M565.211 362.623L566.774 409.373L575.803 414.378C576.464 414.095 577.038 413.642 577.465 413.064C588.543 396.338 584.912 347.906 584.912 347.906L589.134 316.634L586.317 300.407L579.514 299.685C582.14 287.142 583.861 274.967 581.004 273.647C578.463 272.471 576.795 268.249 575.711 263.704L570.852 296.802C570.852 296.802 571.259 299.783 571.403 302.857C571.515 305.142 571.476 307.454 571.009 308.682C569.913 311.499 570.694 316.503 570.694 316.503C567.877 321.468 566.472 330.668 565.782 339.553C564.856 351.367 565.211 362.623 565.211 362.623Z" fill="black"/>
<path d="M575.862 262.982C575.862 262.982 583.743 263.96 586.238 267.244C588.734 270.527 595.307 270.981 595.307 270.981C595.307 270.981 602.813 273.483 602.656 274.106C602.498 274.73 604.842 275.676 609.538 276.924C614.233 278.171 622.015 282.709 622.015 283.806C622.015 284.903 634.367 297.091 634.367 298.345C634.367 299.6 638.124 304.256 637.651 312.569C637.178 320.883 636.712 331.331 638.59 333.052C640.468 334.772 638.59 341.497 638.59 341.497C638.092 342.232 637.817 343.096 637.8 343.984C637.782 344.872 638.023 345.747 638.491 346.501C640.054 349.318 638.183 361.047 638.183 361.047L638.334 373.242C638.334 373.242 636.613 380.899 638.649 381.214C640.685 381.529 638.334 384.964 638.334 384.964C638.334 384.964 636.613 391.222 638.807 394.033C641 396.844 641.617 408.887 641.617 408.887L675.109 457.483C675.109 457.483 675.582 466.395 664.95 466.237C654.318 466.079 654.443 468.273 654.784 470.302C655.126 472.331 651.816 474.525 651.816 474.525C651.816 474.525 647.593 476.711 650.095 479.371C652.597 482.031 659.788 488.125 647.908 492.19C646.503 490.259 645.346 488.159 644.467 485.938C643.459 483.18 642.623 480.362 641.965 477.499C641.965 477.499 640.869 465.613 638.682 464.05C636.495 462.487 636.804 454.981 636.804 454.981C636.804 454.981 639.93 448.887 635.556 446.385C631.182 443.883 567.634 408.736 567.634 408.736L566.071 361.986C566.071 361.986 564.974 327.437 571.541 315.866C571.541 315.866 570.76 310.862 571.857 308.051C572.953 305.241 571.699 296.165 571.699 296.165L575.862 262.982Z" fill="#565387"/>
<path opacity="0.1" d="M534.885 281.737C534.885 281.737 519.17 278.5 514.947 280.687C510.725 282.873 502.47 284.627 501.157 285.848C499.843 287.07 496.777 286.163 493.966 293.512C491.155 300.86 490.833 308.36 487.241 311.801C483.649 315.242 481.771 317.587 481.613 320.089C481.456 322.591 482.08 323.214 480.674 324.029C479.269 324.843 477.233 328.094 477.857 329.348C478.481 330.602 510.436 358.079 510.436 358.079C510.436 358.079 512.005 368.586 513.411 371.213C514.816 373.839 511.848 410.457 508.722 412.959C505.596 415.461 529.828 415.231 529.828 415.231C529.828 415.231 530.918 391.229 531.857 389.975C532.796 388.72 531.201 363.05 531.201 363.05C531.201 363.05 531.043 341.162 533.079 335.377C535.114 329.591 534.885 310.383 534.885 310.383C534.885 310.383 536.684 298.844 538.871 296.152C541.058 293.459 534.885 281.737 534.885 281.737Z" fill="black"/>
<path d="M534.418 281.271C534.418 281.271 518.697 278.034 514.475 280.22C510.252 282.407 501.997 284.128 500.717 285.382C499.436 286.636 496.343 285.691 493.493 293.039C490.643 300.388 490.367 307.894 486.769 311.335C483.17 314.776 481.298 317.12 481.141 319.622C480.983 322.124 481.614 322.748 480.208 323.53C478.803 324.311 476.767 327.595 477.391 328.842C478.015 330.09 509.911 357.612 509.911 357.612C509.911 357.612 511.473 368.12 512.879 370.746C514.284 373.373 511.316 409.984 508.19 412.486C505.064 414.988 529.296 414.758 529.296 414.758C529.296 414.758 530.393 390.756 531.332 389.508C532.271 388.261 530.675 362.584 530.675 362.584C530.675 362.584 530.524 340.696 532.553 334.91C534.583 329.125 534.359 309.89 534.359 309.89C534.359 309.89 536.159 298.352 538.339 295.666C540.519 292.98 534.418 281.271 534.418 281.271Z" fill="#565387"/>
<path opacity="0.1" d="M532.763 268.025C533.964 271.417 534.576 274.988 534.576 278.585C542.264 280.863 550.494 280.499 557.951 277.551C565.409 274.604 571.664 269.244 575.718 262.325C574.952 258.478 574.443 254.584 574.194 250.669C574.194 250.669 526.045 248.173 532.763 268.025Z" fill="black"/>
<path d="M509.004 243.32C509.012 252.492 512.54 261.31 518.859 267.957C525.178 274.604 533.807 278.573 542.966 279.045C552.125 279.516 561.116 276.455 568.085 270.492C575.053 264.529 579.468 256.12 580.418 246.998C581.368 237.875 578.781 228.737 573.191 221.466C567.601 214.195 559.433 209.347 550.373 207.921C541.314 206.495 532.052 208.6 524.499 213.802C516.946 219.005 511.677 226.907 509.779 235.88C509.262 238.326 509.002 240.82 509.004 243.32Z" fill="#EE8E9E"/>
<path d="M486.02 326.183L477.424 328.842C477.424 328.842 478.205 331.968 475.703 333.531C473.201 335.094 473.516 338.227 473.516 338.227C473.516 338.227 472.577 341.661 470.391 342.443C468.204 343.224 466.792 348.353 466.792 348.353L459.601 356.64C459.601 356.64 456.941 358.827 457.414 359.924C457.887 361.021 454.597 361.329 454.597 361.329L456.318 389.187L471.172 392.004L480.366 391.065L487.872 388.247L494.439 384.307L497.433 376.709L510.567 356.7L486.02 326.183Z" fill="#565387"/>
<path d="M456.784 363.575C456.784 363.575 437.74 336.053 423.483 350.908C409.226 365.762 429.268 389.837 433.957 389.055C438.646 388.274 461.006 387.026 461.006 387.026L456.784 363.575Z" fill="#EE8E9E"/>
<path d="M434.989 344.399L417.347 360.312C413.948 363.378 413.678 368.618 416.743 372.017L436.343 393.746C439.408 397.145 444.649 397.415 448.047 394.35L465.69 378.436C469.089 375.37 469.359 370.13 466.293 366.731L446.694 345.002C443.628 341.603 438.388 341.333 434.989 344.399Z" fill="#30374E"/>
<path opacity="0.1" d="M434.989 344.399L417.347 360.312C413.948 363.378 413.678 368.618 416.743 372.017L436.343 393.746C439.408 397.145 444.649 397.415 448.047 394.35L465.69 378.436C469.089 375.37 469.359 370.13 466.293 366.731L446.694 345.002C443.628 341.603 438.388 341.333 434.989 344.399Z" fill="black"/>
<path d="M435.526 342.133L417.884 358.046C414.485 361.112 414.215 366.352 417.281 369.751L436.88 391.48C439.945 394.879 445.186 395.149 448.585 392.083L466.227 376.17C469.626 373.104 469.896 367.864 466.83 364.465L447.231 342.736C444.166 339.337 438.925 339.067 435.526 342.133Z" fill="#30374E"/>
<path d="M441.555 377.149C446.477 377.149 450.467 373.159 450.467 368.238C450.467 363.316 446.477 359.326 441.555 359.326C436.634 359.326 432.644 363.316 432.644 368.238C432.644 373.159 436.634 377.149 441.555 377.149Z" fill="#FF4F08"/>
<path opacity="0.1" d="M441.555 377.149C446.477 377.149 450.467 373.159 450.467 368.238C450.467 363.316 446.477 359.326 441.555 359.326C436.634 359.326 432.644 363.316 432.644 368.238C432.644 373.159 436.634 377.149 441.555 377.149Z" fill="black"/>
<path d="M442.054 376.02C446.976 376.02 450.965 372.03 450.965 367.108C450.965 362.187 446.976 358.197 442.054 358.197C437.133 358.197 433.143 362.187 433.143 367.108C433.143 372.03 437.133 376.02 442.054 376.02Z" fill="#FF4F08"/>
<path d="M444.438 369.334C444.28 389.975 486.966 394.348 486.966 394.348L497.867 396.082L502.753 396.857L504.788 376.709C504.788 376.709 502.549 376.374 499.751 375.724C495.621 374.759 490.269 373.097 489.146 370.766C487.274 366.859 444.589 348.701 444.438 369.334Z" fill="#EE8E9E"/>
<path opacity="0.1" d="M509.779 235.88C510.764 235.953 511.693 236.366 512.406 237.049C513.614 238.329 513.68 240.602 515.249 241.39C515.836 241.645 516.485 241.72 517.114 241.606C521.271 241.015 523.681 236.353 527.668 235.039C529.94 234.304 532.442 234.783 534.661 235.637C535.554 235.917 536.355 236.432 536.979 237.128C538.293 238.855 537.38 241.396 537.997 243.491C538.858 246.394 542.325 247.55 545.326 247.93C548.327 248.311 551.709 248.521 553.712 250.787C555.131 252.396 555.492 254.727 555.203 256.835C555.026 257.571 555.026 258.339 555.203 259.075C556.03 261.419 560.089 261.045 561.146 259.219C561.921 257.873 561.684 256.756 563.51 256.382C564.745 256.126 566.196 256.645 567.339 257.039C570.521 258.137 573.876 258.653 577.241 258.562C579.37 253.995 580.51 249.029 580.587 243.99C580.665 238.952 579.678 233.954 577.691 229.322C575.704 224.691 572.763 220.532 569.058 217.115C565.354 213.699 560.97 211.103 556.194 209.497C551.417 207.891 546.356 207.311 541.34 207.796C536.324 208.28 531.467 209.818 527.086 212.308C522.705 214.798 518.899 218.185 515.917 222.247C512.934 226.309 510.843 230.954 509.779 235.88Z" fill="black"/>
<path d="M555.183 258.129C555.006 257.393 555.006 256.626 555.183 255.89C555.465 253.768 555.111 251.444 553.692 249.841C551.722 247.576 548.307 247.359 545.306 246.985C542.305 246.61 538.838 245.455 537.978 242.552C537.36 240.457 538.293 237.909 536.96 236.182C536.339 235.486 535.539 234.973 534.648 234.698C532.422 233.838 529.92 233.384 527.648 234.094C523.662 235.407 521.252 240.083 517.095 240.661C516.465 240.775 515.816 240.699 515.23 240.444C513.66 239.656 513.595 237.384 512.386 236.11C510.488 234.1 506.883 235.394 504.558 233.903C503.041 232.925 502.457 231.027 502.037 229.274C501.209 225.872 500.546 222.306 501.341 218.904C502.7 213.086 507.908 209.1 511.191 204.135C514.284 199.505 516.018 193.628 520.667 190.581C525.317 187.534 531.286 188.21 536.526 189.767C538.982 190.495 541.412 191.402 543.954 191.737C548.183 192.255 552.425 191.08 556.68 190.962C562.691 190.768 568.597 192.561 573.485 196.064C574.586 196.785 575.522 197.732 576.23 198.842C577.077 200.339 577.189 202.126 577.445 203.82C577.942 207.052 579.056 210.158 580.728 212.968C582.042 215.168 583.69 217.164 584.879 219.436C586.067 221.708 586.763 224.394 586.002 226.837C585.601 228.151 584.807 229.287 584.511 230.607C583.815 233.66 585.824 236.576 587.197 239.393C588.526 241.963 589.156 244.837 589.022 247.727C588.946 249.166 588.574 250.573 587.93 251.862C587.286 253.151 586.384 254.294 585.279 255.22C583.066 256.953 580.157 257.531 577.353 257.623C573.922 257.739 570.499 257.225 567.253 256.106C566.104 255.712 564.626 255.193 563.425 255.45C561.599 255.824 561.835 256.94 561.06 258.287C560.062 260.125 556.01 260.473 555.183 258.129Z" fill="#434175"/>
<path opacity="0.1" d="M535.896 460.018L556.063 444.257L587.808 412.985C587.808 412.985 583.539 412.775 577.3 412.513C576.164 413.668 575.153 415.139 575.087 416.781C574.93 420.603 566.504 417.05 562.131 419.237C557.757 421.424 536.336 448.835 532.58 448.657C528.823 448.48 525.862 446.753 524.292 449.412C524.259 449.474 524.221 449.533 524.18 449.59C523.557 450.302 522.721 450.797 521.797 451.002L535.896 460.018Z" fill="black"/>
<path d="M495.246 458.921L505.379 491.271L506.968 496.353L511.795 495.04L522.434 492.118L569.821 479.102C569.821 479.102 578.726 478.984 586.895 474.551C595.924 469.639 606.11 467.17 616.341 468.128C622.606 468.713 629.573 466.014 635.385 455.336C635.385 455.336 648.519 416.591 615.369 405.427C582.219 394.263 580.643 411.337 580.643 411.337C580.643 411.337 580.472 411.429 580.197 411.613C578.883 412.434 575.304 415.015 575.173 418.18C575.015 422.002 566.59 418.443 562.216 420.629C557.843 422.816 536.421 450.233 532.665 450.056C528.909 449.879 525.947 448.152 524.377 450.811C524.377 450.87 524.305 450.923 524.266 450.982C523.11 452.578 519.63 452.952 517.325 453.011C516.07 453.051 515.157 453.011 515.157 453.011L514.862 453.103L512.406 453.786L495.246 458.921Z" fill="#434175"/>
<path opacity="0.1" d="M497.867 396.082L502.753 396.857L504.788 376.709C504.788 376.709 502.549 376.374 499.751 375.724C500.493 378.515 498.812 389.397 497.867 396.082Z" fill="black"/>
<path opacity="0.1" d="M625.712 301.845C625.712 301.845 640.251 297.623 636.653 338.903C633.054 380.183 606.169 406.261 606.169 406.261C606.169 406.261 575.212 419.861 561.297 417.674C547.382 415.487 537.222 415.047 537.222 415.047C532.843 412.833 528.05 411.556 523.15 411.298C515.328 410.982 498.917 406.136 498.602 404.573C498.287 403.01 502.667 380.026 500.789 378.305C500.789 378.305 522.677 379.205 524.87 380.787C527.063 382.37 530.183 381.234 532.527 380.787C534.872 380.341 542.069 374.082 556.293 379.559C556.293 379.559 561.139 380.026 563.017 378.778C564.896 377.53 567.903 378.463 567.903 378.463C567.903 378.463 570.852 377.366 571.305 376.709C571.758 376.053 575.521 376.709 575.521 376.709C575.744 376.818 575.989 376.876 576.238 376.878C576.487 376.881 576.733 376.827 576.958 376.722C577.184 376.617 577.383 376.463 577.541 376.271C577.699 376.079 577.812 375.854 577.872 375.613C578.363 374.333 579.107 373.165 580.059 372.178C580.059 372.178 584.281 348.412 592.254 339.501C592.254 339.501 594.598 337.465 593.974 334.963C593.35 332.461 606.97 296.835 625.712 301.845Z" fill="black"/>
<path d="M625.357 298.667C625.357 298.667 639.897 294.445 636.305 335.725C632.712 377.005 605.781 403.109 605.781 403.109C605.781 403.109 574.825 416.709 560.909 414.522C546.994 412.335 536.835 411.862 536.835 411.862C532.456 409.647 527.663 408.37 522.762 408.113C514.947 407.797 498.53 402.951 498.215 401.388C497.9 399.825 502.28 376.841 500.408 375.12C500.408 375.12 522.296 376.02 524.483 377.602C526.669 379.185 529.802 378.049 532.146 377.602C534.491 377.156 541.681 370.904 555.912 376.374C555.912 376.374 560.758 376.841 562.63 375.593C564.502 374.345 567.522 375.278 567.522 375.278C567.522 375.278 570.451 374.181 570.917 373.557C571.384 372.933 575.14 373.557 575.14 373.557C575.363 373.666 575.607 373.724 575.855 373.727C576.103 373.73 576.348 373.677 576.573 373.572C576.797 373.468 576.996 373.314 577.154 373.123C577.312 372.932 577.425 372.708 577.484 372.467C577.974 371.185 578.718 370.014 579.671 369.026C579.671 369.026 583.894 345.26 591.866 336.348C591.866 336.348 594.21 334.313 593.587 331.817C592.963 329.322 606.563 293.663 625.357 298.667Z" fill="#565387"/>
<path opacity="0.1" d="M512.406 453.786L533.052 478.741C533.131 478.668 533.184 478.616 533.184 478.596C533.341 478.123 535.371 472.811 534.904 472.495C534.438 472.18 530.839 464.366 523.649 461.082C519.255 459.112 516.379 455.507 514.809 453.037L512.406 453.786Z" fill="black"/>
<path opacity="0.1" d="M512.688 497.023L514.947 498.337C514.947 498.337 520.201 494.134 525.395 489.905C530.59 485.675 535.659 481.532 535.745 481.295C535.896 480.829 537.925 475.51 537.459 475.201C537.216 475.037 536.145 472.87 534.175 470.361C520.175 466.421 529.086 476.16 530.275 476.606C530.275 476.606 513.2 472.666 512.294 491.257C512.17 493.188 512.303 495.127 512.688 497.023Z" fill="black"/>
<path d="M529.953 504.89L532.928 506.611L563.136 507.392C563.136 507.392 569.611 511.333 573.813 512.528C574.309 512.682 574.816 512.794 575.33 512.863C578.126 513.089 580.934 513.142 583.736 513.02C586.048 512.961 587.84 512.863 587.84 512.863C587.84 512.863 586.409 474.774 585.332 470.834C584.82 468.916 582.291 469.337 579.796 470.296C577.921 471.056 576.113 471.972 574.391 473.034C574.391 473.034 561.573 474.275 559.537 475.378C557.501 476.482 551.722 474.722 548.124 475.378C544.525 476.035 538.122 471.143 538.122 471.143C520.608 465.364 530.459 476.147 531.706 476.62C531.706 476.62 514.672 472.679 513.732 491.271C512.793 509.862 529.953 504.89 529.953 504.89Z" fill="#565387"/>
<path d="M573.577 490.194C573.905 498.074 580.046 507.852 583.703 513.02C586.015 512.961 587.808 512.863 587.808 512.863C587.808 512.863 586.376 474.774 585.299 470.834C584.787 468.916 582.259 469.337 579.763 470.295C576.762 475.943 573.314 483.843 573.577 490.194Z" fill="#565387"/>
<path opacity="0.1" d="M573.577 490.194C573.905 498.074 580.046 507.852 583.703 513.02C586.015 512.961 587.808 512.863 587.808 512.863C587.808 512.863 586.376 474.774 585.299 470.834C584.787 468.916 582.259 469.337 579.763 470.295C576.762 475.943 573.314 483.843 573.577 490.194Z" fill="black"/>
<path opacity="0.05" d="M568.415 491.238C570.491 498.842 570.471 507.373 573.781 512.528C574.276 512.682 574.783 512.794 575.298 512.863C578.094 513.089 580.901 513.142 583.703 513.02C586.015 512.961 587.808 512.863 587.808 512.863C587.808 512.863 586.376 474.774 585.299 470.834C584.787 468.916 582.259 469.337 579.763 470.295C577.888 471.056 576.08 471.972 574.359 473.034C574.359 473.034 565.762 481.505 568.415 491.238Z" fill="black"/>
<path opacity="0.1" d="M464.316 414.102C464.316 414.102 479.302 418.968 492.002 436.252L464.316 414.102Z" fill="black"/>
<g opacity="0.1">
<path opacity="0.1" d="M586.107 226.496C586.082 226.607 586.052 226.716 586.015 226.824C585.871 227.273 585.698 227.712 585.496 228.137C585.65 227.573 585.855 227.024 586.107 226.496Z" fill="black"/>
<path opacity="0.1" d="M501.314 218.911C501.574 217.815 501.964 216.755 502.477 215.752C502.398 216.021 502.313 216.291 502.247 216.566C501.452 219.968 502.116 223.534 502.943 226.936C503.37 228.689 503.948 230.587 505.465 231.565C507.796 233.056 511.375 231.756 513.292 233.765C514.501 235.046 514.566 237.318 516.142 238.106C516.729 238.362 517.378 238.437 518.008 238.323C522.158 237.732 524.574 233.069 528.561 231.756C530.833 231.02 533.328 231.5 535.554 232.36C536.446 232.635 537.245 233.148 537.866 233.844C539.179 235.571 538.267 238.119 538.884 240.208C539.744 243.11 543.211 244.266 546.213 244.64C549.214 245.015 552.596 245.231 554.599 247.504C556.017 249.106 556.378 251.444 556.089 253.552C555.915 254.288 555.915 255.055 556.089 255.791C556.917 258.136 560.975 257.761 562 255.936C562.774 254.589 562.545 253.473 564.37 253.099C565.598 252.843 567.05 253.361 568.192 253.755C571.438 254.874 574.861 255.388 578.292 255.272C581.096 255.174 584.012 254.616 586.218 252.869C587.227 252.065 588.054 251.058 588.648 249.914C588.134 251.998 586.959 253.859 585.299 255.22C583.093 256.953 580.183 257.531 577.373 257.623C573.944 257.74 570.523 257.225 567.279 256.106C566.13 255.712 564.653 255.194 563.451 255.45C561.625 255.824 561.855 256.94 561.087 258.287C560.023 260.138 555.971 260.487 555.137 258.142C554.963 257.406 554.963 256.639 555.137 255.903C555.426 253.782 555.071 251.457 553.653 249.855C551.643 247.589 548.261 247.372 545.26 246.998C542.259 246.624 538.792 245.468 537.938 242.565C537.314 240.47 538.253 237.922 536.92 236.195C536.296 235.5 535.495 234.987 534.602 234.711C532.376 233.851 529.881 233.398 527.608 234.107C523.616 235.42 521.206 240.096 517.055 240.674C516.426 240.788 515.777 240.713 515.19 240.457C513.614 239.669 513.549 237.397 512.34 236.123C510.442 234.113 506.844 235.407 504.519 233.916C502.995 232.938 502.418 231.04 501.991 229.287C501.176 225.878 500.513 222.313 501.314 218.911Z" fill="black"/>
</g>
<path opacity="0.1" d="M588.53 344.045C585.667 347.913 582.397 351.492 579.862 355.583C577.327 359.674 575.534 364.449 576.066 369.229C578.693 366.537 579.888 362.82 581.543 359.445C584.34 353.731 588.53 348.885 592.05 343.631C592.707 342.627 597.047 336.834 594.861 336.559C593.061 336.329 589.509 342.725 588.53 344.045Z" fill="black"/>
</g>
<defs>
<linearGradient id="paint0_linear" x1="540.243" y1="511.911" x2="540.243" y2="185.17" gradientUnits="userSpaceOnUse">
<stop stop-color="#808080" stop-opacity="0.25"/>
<stop offset="0.54" stop-color="#808080" stop-opacity="0.12"/>
<stop offset="1" stop-color="#808080" stop-opacity="0.1"/>
</linearGradient>
<clipPath id="clip0">
<rect width="749" height="517" fill="white"/>
</clipPath>
</defs>
</svg>
